<?xml version="1.0" encoding="UTF-8" standalone="no"?>
<!-- Created with Inkscape (http://www.inkscape.org/) -->

<svg
   width="210mm"
   height="297mm"
   viewBox="0 0 210 297"
   version="1.1"
   id="svg5"
   inkscape:version="1.1.1 (3bf5ae0d25, 2021-09-20)"
   sodipodi:docname="copy-logo.svg"
   xmlns:inkscape="http://www.inkscape.org/namespaces/inkscape"
   xmlns:sodipodi="http://sodipodi.sourceforge.net/DTD/sodipodi-0.dtd"
   xmlns="http://www.w3.org/2000/svg"
   xmlns:svg="http://www.w3.org/2000/svg">
  <sodipodi:namedview
     id="namedview7"
     pagecolor="#ffffff"
     bordercolor="#666666"
     borderopacity="1.0"
     inkscape:pageshadow="2"
     inkscape:pageopacity="0.0"
     inkscape:pagecheckerboard="0"
     inkscape:document-units="mm"
     showgrid="false"
     inkscape:zoom="2.0762433"
     inkscape:cx="357.61705"
     inkscape:cy="490.54945"
     inkscape:window-width="1920"
     inkscape:window-height="1009"
     inkscape:window-x="1432"
     inkscape:window-y="-8"
     inkscape:window-maximized="1"
     inkscape:current-layer="surface1" />
  <defs
     id="defs2" />
  <g
     inkscape:label="Camada 1"
     inkscape:groupmode="layer"
     id="layer1">
    <g
       id="surface1"
       transform="matrix(0.35277778,0,0,0.31190372,45.29578,89.863598)">
      <path
         style="fill:#211e1e;fill-opacity:1;fill-rule:evenodd;stroke:none"
         d="M 8.503906,115.41406 V 77.890625 c 0,-4.824219 3.875,-8.761719 8.699219,-8.761719 H 175.55469 c 4.76172,0 8.69922,3.9375 8.69922,8.761719 v 37.523435 c 0,4.76563 -3.9375,8.69922 -8.69922,8.69922 H 17.203125 c -5.589844,0 -8.699219,-3.93359 -8.699219,-8.69922"
         id="path11" />
      <path
         style="fill:#ffe600;fill-opacity:1;fill-rule:evenodd;stroke:none"
         d="m 17.203125,71.035156 c -3.683594,0 -6.792969,3.109375 -6.792969,6.855469 v 37.523435 c 0.0625,4.63672 3.171875,6.79688 6.792969,6.79688 H 119.29688 c -1.90235,-1.58985 -3.61719,-2.54297 -1.77735,-7.23828 L 132.0625,77.890625 c 1.01562,-2.601562 2.47266,-6.792969 4,-6.855469 H 17.203125"
         id="path13" />
      <path
         style="fill:#ffffff;fill-opacity:1;fill-rule:evenodd;stroke:none"
         d="m 141.07812,71.035156 c -4.63671,0.0625 -5.14453,2.984375 -6.73046,6.855469 l -13.20703,37.523435 c -1.26954,3.6211 3.17578,6.79688 6.85546,6.79688 h 47.6211 c 3.74609,0 6.73047,-3.11328 6.73047,-6.79688 V 77.890625 c 0,-3.746094 -2.98438,-6.855469 -6.73047,-6.855469 h -34.53907"
         id="path15" />
      <path
         style="fill:#211e1e;fill-opacity:1;fill-rule:evenodd;stroke:none"
         d="m 143.17187,83.988281 c -2.22265,-0.445312 -3.80859,-1.082031 -4.63671,-1.84375 -0.37891,-0.316406 -0.63282,-0.761718 -0.82422,-1.269531 -0.19141,-0.445312 -0.25391,-0.953125 -0.19141,-1.394531 0.12891,-0.574219 0.32031,-1.015625 0.69922,-1.398438 0.38281,-0.382812 0.82812,-0.636718 1.39844,-0.761718 0.44531,-0.0625 0.76172,-0.253907 1.01562,-0.507813 0.25391,-0.253906 0.44531,-0.570312 0.50781,-0.953125 0.0625,-0.445312 -0.0625,-0.761719 -0.2539,-1.078125 -0.25391,-0.316406 -0.57031,-0.507812 -0.89063,-0.570312 -0.63281,-0.06641 -1.20703,0.0625 -1.90234,0.378906 -0.69922,0.316406 -1.33594,0.890625 -1.90625,1.585937 -0.50781,0.761719 -0.88672,1.714844 -1.07813,2.796875 -0.1289,1.140625 -0.1289,2.15625 0.125,3.109375 0.32032,0.953125 0.82813,1.777344 1.58985,2.601563 0.69531,0.699219 1.64844,1.335937 2.85547,1.90625 1.20703,0.507812 2.60156,0.890625 4.2539,1.144531 1.46094,0.253906 2.73047,0.316406 3.9375,0.191406 0.0625,0 0.0625,0 0.0625,0 1.20703,-0.128906 2.22266,-0.445312 3.04688,-0.890625 0.89062,-0.445312 1.58984,-1.144531 2.09765,-1.90625 0.57032,-0.824218 0.88672,-1.714843 1.07813,-2.855468 0.125,-0.953125 0.125,-1.84375 -0.0625,-2.667969 -0.25391,-0.824219 -0.57422,-1.585938 -1.07813,-2.222656 -0.44531,-0.695313 -1.08203,-1.207032 -1.78125,-1.648438 -0.76171,-0.445312 -1.58593,-0.699219 -2.47656,-0.828125 -0.2539,-0.0625 -0.57031,-0.125 -0.88672,-0.125 -0.50781,0 -1.01562,0.0625 -1.52343,0.125 -0.76172,0.191406 -1.46094,0.445313 -2.09375,0.890625 -0.63672,0.378906 -1.14454,0.953125 -1.58985,1.585938 -0.38281,0.636718 -0.69922,1.335937 -0.82422,2.160156 -0.1289,0.824219 -0.0664,1.648437 0.125,2.347656 0.25391,0.761719 0.63672,1.460938 1.20703,2.097656 z m 4.69922,0.441407 c -0.1914,0 -0.50781,-0.0625 -0.76172,-0.0625 -0.69921,-0.125 -1.26953,-0.378907 -1.77734,-0.761719 -0.44531,-0.378906 -0.82812,-0.824219 -1.01562,-1.332031 -0.19141,-0.574219 -0.25391,-1.082032 -0.12891,-1.585938 0.12891,-0.890625 0.57031,-1.527344 1.26953,-2.035156 0.69922,-0.378906 1.52344,-0.507813 2.41406,-0.441406 0.19141,0 0.31641,0.0625 0.44532,0.0625 1.14062,0.191406 2.03125,0.632812 2.60156,1.269531 0.63672,0.699219 0.89062,1.394531 0.76172,2.222656 -0.125,0.445313 -0.25391,0.886719 -0.57032,1.269531 -0.2539,0.316407 -0.57421,0.636719 -0.95312,0.886719 -0.44531,0.191406 -0.89063,0.382813 -1.39844,0.445313 -0.2539,0.0625 -0.57031,0.0625 -0.88672,0.0625"
         id="path17" />
      <path
         style="fill:#211e1e;fill-opacity:1;fill-rule:evenodd;stroke:none"
         d="m 155.74219,92.75 c 0.2539,-0.570312 0.2539,-1.078125 0.0664,-1.523437 -0.1289,-0.382813 -0.44531,-0.699219 -0.89062,-0.828125 -1.07813,-0.378907 -1.83985,0.191406 -2.41406,1.714843 l -4.69532,12.890629 c -0.1914,0.57031 -0.2539,1.01562 -0.0664,1.46093 0.0664,0.37891 0.38281,0.63282 0.76172,0.76172 0.32031,0.125 0.63671,0.1875 0.76171,0.0625 0.19141,-0.0625 0.63672,-0.3164 1.26954,-0.76172 0.63671,-0.44531 1.27343,-0.82421 2.03515,-1.07812 0.69531,-0.25391 1.58594,-0.44531 2.66406,-0.57422 0.69922,-0.0625 1.20704,-0.125 1.52735,-0.1875 0.3164,-0.12891 0.50781,-0.38281 0.69531,-0.76562 0.0625,-0.31641 0.0625,-0.63282 -0.0625,-1.01563 -0.125,-0.31641 -0.37891,-0.57031 -0.69922,-0.63281 -0.69922,-0.25391 -2.22265,0 -4.69922,0.76172 L 155.74219,92.75"
         id="path19" />
      <path
         style="fill:#211e1e;fill-opacity:1;fill-rule:evenodd;stroke:none"
         d="m 146.41016,118.33594 c 1.20703,0.2539 2.34765,0.44531 3.49218,0.50781 1.07813,0.0625 2.16016,0.0625 3.23828,-0.0625 1.07813,-0.12891 2.16016,-0.25391 3.30079,-0.50781 1.07812,-0.25391 2.22265,-0.57031 3.36718,-1.01563 1.33203,-0.44531 2.15625,-0.82812 2.53907,-1.14453 0.3164,-0.3164 0.57031,-0.88672 0.76171,-1.64844 0.125,-0.50781 0,-0.82812 -0.2539,-0.82812 -0.12891,-0.0625 -0.63672,0.0664 -1.65235,0.32031 -1.07812,0.25391 -2.22265,0.44141 -3.61718,0.63281 -1.33203,0.19141 -2.92188,0.31641 -4.76172,0.31641 -1.77735,0 -3.6211,-0.1875 -5.52344,-0.63281 -1.90625,-0.38281 -3.68359,-0.95313 -5.33594,-1.65235 -1.64843,-0.69921 -3.04687,-1.46093 -4.2539,-2.22265 -1.14063,-0.76172 -2.15625,-1.45703 -2.98438,-2.09375 -0.82422,-0.63672 -1.26953,-0.95313 -1.39453,-0.95313 -0.25391,-0.0625 -0.44531,0.12891 -0.57422,0.69922 -0.125,0.69922 -0.125,1.26953 0.12891,1.77735 0.1914,0.44531 0.76172,1.14453 1.77734,2.09375 1.77735,1.71484 3.6836,3.05078 5.52344,4.0664 1.83984,1.07813 3.9375,1.83985 6.22266,2.34766"
         id="path21" />
      <path
         style="fill:#211e1e;fill-opacity:1;fill-rule:evenodd;stroke:none"
         d="m 168.82422,77.636719 c 0.88672,-0.191406 1.71484,-0.316406 2.53906,-0.378906 0.82422,0 1.58594,0 2.41406,0.0625 0.76172,0.0625 1.58594,0.191406 2.34766,0.378906 0.82422,0.191406 1.65234,0.445312 2.47656,0.699219 1.01563,0.382812 1.58594,0.636718 1.90625,0.890625 0.25391,0.253906 0.44141,0.632812 0.57031,1.207031 0.0625,0.378906 0,0.570312 -0.1914,0.632812 -0.0625,0 -0.50781,-0.125 -1.26953,-0.253906 -0.69922,-0.1875 -1.58594,-0.378906 -2.60157,-0.507812 -1.01953,-0.125 -2.16015,-0.191407 -3.49218,-0.191407 -1.33594,0 -2.66797,0.128907 -4.06641,0.445313 -1.39453,0.253906 -2.73047,0.699219 -3.9375,1.207031 -1.14062,0.507813 -2.21875,1.078125 -3.04687,1.652344 -0.88672,0.507812 -1.58594,1.015625 -2.21875,1.523437 -0.57422,0.441407 -0.95313,0.695313 -1.01954,0.695313 -0.1875,0.06641 -0.3164,-0.125 -0.44531,-0.507813 -0.0625,-0.507812 -0.0625,-0.949218 0.0664,-1.269531 0.1914,-0.378906 0.63281,-0.886719 1.33203,-1.585937 1.33203,-1.269532 2.66797,-2.222657 4.06641,-2.984375 1.33203,-0.761719 2.85546,-1.332032 4.57031,-1.714844"
         id="path23" />
      <path
         style="fill:#211e1e;fill-opacity:1;fill-rule:evenodd;stroke:none"
         d="m 167.55469,84.875 c 0.50781,0.0625 1.01562,0.191406 1.46093,0.316406 0.44141,0.128907 0.88672,0.320313 1.26954,0.507813 0.3789,0.253906 0.82421,0.445312 1.20312,0.699219 0.38281,0.320312 0.76563,0.574218 1.20703,0.953125 0.44531,0.382812 0.69922,0.636718 0.76172,0.828125 0.12891,0.1875 0.12891,0.441406 0.0664,0.757812 0,0.253906 -0.0664,0.320313 -0.19141,0.320313 -0.0625,0 -0.25391,-0.128907 -0.63672,-0.382813 -0.3789,-0.253906 -0.76172,-0.507812 -1.26953,-0.824219 -0.50781,-0.316406 -1.14062,-0.570312 -1.83984,-0.824218 -0.69922,-0.320313 -1.46094,-0.507813 -2.28516,-0.636719 -0.82812,-0.125 -1.58984,-0.191406 -2.35156,-0.191406 -0.76172,0.06641 -1.46094,0.128906 -2.03125,0.253906 -0.57031,0.128906 -1.07813,0.253906 -1.52344,0.382812 -0.37891,0.125 -0.63281,0.191407 -0.69922,0.125 -0.0625,0 -0.125,-0.125 -0.0625,-0.316406 0,-0.316406 0.12891,-0.570312 0.25391,-0.699219 0.1914,-0.191406 0.50781,-0.316406 1.07812,-0.570312 0.95313,-0.382813 1.90625,-0.636719 2.79297,-0.761719 0.89063,-0.128906 1.84375,-0.128906 2.79688,0.0625"
         id="path25" />
      <path
         style="fill:#211e1e;fill-opacity:1;fill-rule:evenodd;stroke:none"
         d="m 87.933594,89.191406 c -1.714844,0.06641 -3.175781,0.761719 -4.382813,2.097657 -1.269531,1.460937 -1.902343,3.554687 -1.902343,6.285156 0,2.539061 0.632812,4.570311 1.902343,6.031251 1.207032,1.33594 2.667969,2.09766 4.382813,2.09766 0.0625,0 0.125,0 0.191406,0 1.078125,0 2.09375,-0.25391 3.046875,-0.89063 0.953125,-0.63672 1.714844,-1.58594 2.222656,-2.85547 0.570313,-1.27344 0.824219,-2.730467 0.824219,-4.507811 0,-1.714844 -0.253906,-3.238281 -0.761719,-4.445313 C 92.886719,91.796875 92.1875,90.84375 91.234375,90.210938 90.28125,89.574219 89.265625,89.191406 88.125,89.191406 c -0.06641,0 -0.128906,0 -0.191406,0 z m 18.984376,22.414064 c -0.44531,1.01562 -0.89063,1.84375 -1.20703,2.35156 -0.38281,0.57031 -0.76172,0.94922 -1.20703,1.20313 -0.44141,0.1914 -1.01563,0.32031 -1.77735,0.32031 -0.2539,0 -0.69922,-0.0664 -1.07812,-0.12891 -0.32031,-0.125 -0.69922,-0.1914 -1.01563,-0.1914 -0.50781,0 -0.890622,0.0664 -1.269529,0.1914 -0.320312,0.12891 -0.574218,0.25391 -0.761718,0.44532 -0.507813,0.3789 -0.699219,1.01562 -0.699219,1.71484 0,0.97656 0.417969,1.69531 1.203125,2.10547 0.382812,0.19922 0.171875,0.17187 0.707031,0.32812 0.96875,0.28125 2.23047,0.42188 3.86719,0.42188 1.96875,0 3.55469,-0.25391 4.69922,-0.82422 1.20703,-0.63672 2.09375,-1.46094 2.79297,-2.60156 0.76171,-1.14453 1.46093,-2.60547 2.15625,-4.57422 l 8.63671,-22.156252 c 0.19141,-0.574219 0.38282,-1.144532 0.50782,-1.714844 0.1289,-0.570313 0.2539,-0.953125 0.3164,-1.269531 0,-0.507813 -0.125,-0.953125 -0.3789,-1.398438 -0.25391,-0.445312 -0.63672,-0.824219 -1.08203,-1.078125 -0.44141,-0.253906 -0.94922,-0.382812 -1.39454,-0.382812 -0.69921,0 -1.26953,0.128906 -1.58593,0.382812 -0.38282,0.1875 -0.76172,0.695313 -1.08203,1.332031 -0.37891,0.699219 -0.69532,1.652344 -1.14063,2.855469 l -5.26953,14.85938 -5.58984,-16.000005 c -0.37891,-1.144531 -0.82422,-1.96875 -1.26954,-2.539062 -0.44531,-0.636719 -1.20703,-0.890625 -2.15625,-0.890625 -0.51171,0 -1.08203,0.128906 -1.58984,0.445312 -0.316406,0.191406 -0.632812,0.445313 -0.886719,0.699219 -0.06641,0.125 -0.191406,0.253906 -0.253906,0.378906 -0.320312,0.507813 -0.445312,1.015625 -0.445312,1.589844 0,0.507812 0.253906,1.332031 0.699218,2.472656 0,0 0,0 0,0.06641 l 8.124999,20.124995 z M 99.363281,90.527344 c 1.015629,1.90625 1.457029,4.316406 1.457029,6.984375 0,1.96875 -0.2539,3.808591 -0.824216,5.523441 -0.191406,0.50781 -0.378906,1.01562 -0.632813,1.52343 -0.445312,1.01563 -1.082031,1.90625 -1.714843,2.66797 -1.015625,1.14063 -2.160157,2.03125 -3.554688,2.60157 -1.335937,0.63671 -2.796875,0.95312 -4.320312,0.95312 -0.632813,0 -1.269532,-0.0625 -1.839844,-0.12891 -1.078125,-0.1875 -2.09375,-0.50781 -2.921875,-1.01562 -1.269531,-0.76172 -2.539063,-1.83984 -3.617188,-3.30078 v 9.77734 c 0,2.85938 -1.082031,4.25391 -3.175781,4.25391 -1.269531,0 -2.09375,-0.37891 -2.414062,-1.07813 -0.378907,-0.76172 -0.570313,-1.83984 -0.570313,-3.23828 V 88.050781 c 0,-1.207031 0.253906,-2.160156 0.824219,-2.792968 0.445312,-0.636719 1.207031,-0.890625 2.160156,-0.890625 0.953125,0 1.652344,0.316406 2.285156,0.953125 0.574219,0.570312 0.890625,1.523437 0.890625,2.667968 V 88.75 c 1.207032,-1.460937 2.476563,-2.605469 3.808594,-3.304687 0.824219,-0.441407 1.777344,-0.761719 2.730469,-0.886719 0.570312,-0.128906 1.207031,-0.191406 1.839844,-0.191406 1.96875,0 3.875,0.570312 5.523437,1.585937 1.78125,1.019531 3.113281,2.542969 4.066406,4.511719 v 0.0625"
         id="path27" />
      <path
         style="fill:#211e1e;fill-opacity:1;fill-rule:evenodd;stroke:none"
         d="m 61.773438,84.367188 c -0.0625,0 -0.0625,0 -0.0625,0 -1.96875,0 -3.746094,0.316406 -5.398438,0.953125 -1.585937,0.570312 -2.980469,1.523437 -4.125,2.605468 -1.144531,1.203125 -2.03125,2.601563 -2.601562,4.1875 -0.636719,1.714844 -0.953125,3.492188 -0.953125,5.460938 0,0.0625 0,0.191406 0,0.316406 -0.128907,-0.378906 -0.382813,-0.632812 -0.636719,-0.949219 -0.632813,-0.574218 -1.332031,-0.828125 -2.222656,-0.828125 -0.953125,0 -1.714844,0.253907 -2.15625,0.828125 -0.445313,0.632813 -0.765625,1.332032 -1.144532,2.285157 -0.636718,1.902347 -1.777343,3.363277 -3.175781,4.441407 -1.457031,1.01953 -3.171875,1.46094 -5.207031,1.46094 -1.902344,0 -3.554688,-0.44141 -4.949219,-1.26953 -1.460937,-0.95313 -2.542969,-2.28516 -3.304687,-4.062505 -0.761719,-1.839844 -1.140625,-4.0625 -1.140625,-6.792969 0,-4 0.824218,-7.175781 2.601562,-9.398437 1.714844,-2.160156 4.128906,-3.300781 6.984375,-3.300781 1.90625,0 3.429688,0.445312 4.699219,1.332031 1.269531,0.828125 2.347656,2.097656 3.300781,3.808594 0.570313,1.082031 1.082031,1.84375 1.523438,2.289062 0.445312,0.378906 1.082031,0.632813 2.03125,0.632813 0.828125,0 1.527343,-0.378907 2.097656,-0.953125 0.570312,-0.632813 0.886719,-1.394532 0.886719,-2.15625 0,-1.523438 -0.570313,-3.046875 -1.777344,-4.699219 C 45.835938,78.90625 44.125,77.511719 41.902344,76.429688 39.679688,75.289063 37.140625,74.71875 34.28125,74.71875 c -2.347656,0 -4.570312,0.378906 -6.601562,1.203125 -2.097657,0.828125 -3.9375,2.03125 -5.460938,3.621094 -1.523437,1.585937 -2.730469,3.492187 -3.554687,5.648437 -0.828125,2.289063 -1.207032,4.761719 -1.207032,7.558594 0,1.777344 0.125,3.363281 0.507813,4.953125 0.253906,1.523438 0.761719,2.980465 1.460937,4.316405 0.632813,1.39453 1.394532,2.60156 2.347657,3.6836 1.015625,1.20312 2.222656,2.15625 3.429687,2.91796 1.269531,0.69922 2.667969,1.26954 4.191406,1.58985 1.523438,0.3789 3.171875,0.57031 5.078125,0.57031 2.476563,0 4.570313,-0.44531 6.476563,-1.20703 1.777344,-0.76172 3.300781,-1.77734 4.507812,-2.98438 1.207032,-1.26953 2.09375,-2.53906 2.601563,-3.80859 0.382812,-0.95312 0.636719,-1.83984 0.761719,-2.66797 0.191406,1.01563 0.382812,1.90625 0.699218,2.79297 0.636719,1.58984 1.523438,3.05078 2.667969,4.19141 1.207031,1.14453 2.601563,2.09765 4.125,2.73047 1.589844,0.63671 3.367188,0.95312 5.398438,0.95312 0,0 0,0 0.0625,0 1.90625,-0.0625 3.746093,-0.31641 5.398437,-0.95312 1.523438,-0.63282 2.921875,-1.52344 4.125,-2.73047 1.144531,-1.14063 2.035156,-2.53907 2.605469,-4.19141 0.632812,-1.58594 0.953125,-3.425781 0.953125,-5.332031 0,-1.96875 -0.320313,-3.746094 -0.890625,-5.394531 -0.632813,-1.589844 -1.460938,-2.988282 -2.667969,-4.191407 -1.140625,-1.144531 -2.601562,-2.035156 -4.125,-2.667968 -1.652344,-0.636719 -3.492187,-0.953125 -5.398437,-0.953125 z m 0,21.589842 c -0.0625,0 -0.0625,0 -0.0625,0 -1.332032,0 -2.476563,-0.38281 -3.429688,-1.08203 -1.015625,-0.63281 -1.714844,-1.58594 -2.222656,-2.85547 -0.570313,-1.33594 -0.824219,-2.792967 -0.824219,-4.445311 0,-1.714844 0.253906,-3.238281 0.824219,-4.507813 0.507812,-1.269531 1.269531,-2.222656 2.285156,-2.921875 0.953125,-0.632812 2.097656,-0.953125 3.367188,-0.953125 0,0 0,0 0.0625,0 1.90625,0 3.492187,0.699219 4.699218,2.160157 C 67.617188,92.875 68.25,94.90625 68.25,97.574219 c 0,2.601561 -0.632812,4.636721 -1.777344,6.093751 -1.207031,1.52734 -2.792968,2.22266 -4.699218,2.28906"
         id="path29" />
      <path
         style="fill:#211e1e;fill-opacity:1;fill-rule:evenodd;stroke:none"
         d="m 123.04688,79.097656 c 0.2539,0 0.50781,0.0625 0.76171,0.191407 0.1875,0.125 0.37891,0.253906 0.50782,0.507812 0.125,0.191406 0.1875,0.445313 0.1875,0.699219 0,0.253906 -0.0625,0.507812 -0.1875,0.761719 -0.12891,0.1875 -0.32032,0.378906 -0.50782,0.507812 -0.2539,0.125 -0.50781,0.1875 -0.76171,0.1875 v 0.382813 c 0.3164,0 0.63281,-0.125 0.88671,-0.253907 0.31641,-0.191406 0.50782,-0.382812 0.69922,-0.636718 0.125,-0.316407 0.25391,-0.570313 0.25391,-0.949219 0,-0.253906 -0.0625,-0.445313 -0.19141,-0.699219 -0.0625,-0.191406 -0.1914,-0.382812 -0.3789,-0.570312 -0.12891,-0.128907 -0.32032,-0.253907 -0.57422,-0.382813 -0.1875,-0.0625 -0.44141,-0.125 -0.69531,-0.125 z m 0,2.855469 c -0.25782,0 -0.51172,-0.0625 -0.69922,-0.1875 -0.25391,-0.128906 -0.38282,-0.320312 -0.50782,-0.507812 -0.1914,-0.253907 -0.2539,-0.507813 -0.2539,-0.761719 0,-0.253906 0.0625,-0.507813 0.2539,-0.699219 0.125,-0.253906 0.25391,-0.382812 0.50782,-0.507812 0.1875,-0.128907 0.4414,-0.191407 0.69922,-0.191407 V 78.71875 c -0.32032,0 -0.63672,0.0625 -0.89063,0.253906 -0.25391,0.125 -0.50781,0.378907 -0.63672,0.632813 -0.1914,0.253906 -0.2539,0.570312 -0.2539,0.890625 0,0.378906 0.0625,0.632812 0.2539,0.949219 0.12891,0.253906 0.38281,0.445312 0.63672,0.636718 0.25391,0.128907 0.57031,0.253907 0.89063,0.253907 v -0.382813"
         id="path31" />
      <path
         style="fill:#211e1e;fill-opacity:1;fill-rule:evenodd;stroke:none"
         d="m 123.10938,79.859375 c 0.125,0 0.2539,0 0.3164,0.0625 0.0625,0.06641 0.0625,0.128906 0.0625,0.191406 0,0.128907 0,0.191407 -0.125,0.191407 -0.0625,0.0625 -0.1289,0.0625 -0.2539,0.0625 V 80.75 c 0.0625,0.0625 0.0625,0.0625 0.0625,0.125 0.0625,0.0625 0.1289,0.128906 0.1914,0.253906 l 0.19141,0.316407 h 0.50781 l -0.25391,-0.378907 c -0.0664,-0.128906 -0.1289,-0.253906 -0.1914,-0.316406 -0.0625,-0.0625 -0.12891,-0.0625 -0.19141,-0.128906 0.12891,0 0.25391,-0.0625 0.38281,-0.191406 0.0625,-0.0625 0.125,-0.1875 0.125,-0.316407 0,-0.125 -0.0625,-0.191406 -0.0625,-0.316406 -0.0625,-0.0625 -0.1289,-0.125 -0.2539,-0.191406 -0.0625,0 -0.19141,-0.0625 -0.31641,-0.0625 h -0.1914 z m -0.38282,0 h 0.38282 v -0.316406 h -0.76172 v 1.902344 h 0.3789 V 80.6875 h 0.12891 c 0.0625,0 0.125,0 0.19141,0 0,0.0625 0.0625,0.0625 0.0625,0.0625 v -0.382812 c 0,0 0,0 -0.0625,0 h -0.32032 v -0.507813"
         id="path33" />
    </g>
  </g>
</svg>
